<mxfile host="app.diagrams.net" modified="2023-11-19T15:47:52.925Z" agent="Mozilla/5.0 (Windows NT 10.0; Win64; x64) AppleWebKit/537.36 (KHTML, like Gecko) Chrome/119.0.0.0 Safari/537.36" version="22.1.3" etag="PB_Y_lkj8GELNn7Ic7RZ" type="github">
  <diagram name="Page-1" id="sszsGT3BFtq_aQ1x95Ix">
    <mxGraphModel>
      <root>
        <mxCell id="0" />
        <mxCell id="1" parent="0" />
      </root>
    </mxGraphModel>
  </diagram>
</mxfile>
